# xmcd
#
# Track frame offsets: 
#        150
#        19245
#        39180
#        57570
#        76245
#        96315
#        117300
#        135990
#        154710
#        173805
#        190650
#        208695
#
# Disc length: 2984 seconds
#
# Revision: 0
# Processed by: cddbd v1.5.2PL0 Copyright (c) Steve Scherf et al.
# Submitted via: ExactAudioCopy v1.0b4
#
DISCID=970ba60c
DTITLE=Harper - Day By Day
DYEAR=2007
DGENRE=Blues Rock
TTITLE0=Do What Is Right
TTITLE1=One Day
TTITLE2=Sure There's A Place
TTITLE3=Watch Your Back
TTITLE4=Just What You're Looking For
TTITLE5=I'll Go Home
TTITLE6=Feels Like Sunday Morning
TTITLE7=Get Out Of This Mess
TTITLE8=Face The Truth
TTITLE9=I Must Be Dreaming
TTITLE10=You Can't Hide
TTITLE11=The Comfort Zone (Instrumental)
EXTD=
EXTT0=
EXTT1=
EXTT2=
EXTT3=
EXTT4=
EXTT5=
EXTT6=
EXTT7=
EXTT8=
EXTT9=
EXTT10=
EXTT11=
PLAYORDER=
